<svg xmlns="http://www.w3.org/2000/svg" width="37" height="35" viewBox="0 0 37 35">
  <g id="linker" transform="translate(-10 -25.456)">
    <path id="link_FILL0_wght200_GRAD0_opsz48" d="M131.546-627.806h-6.987a7.36,7.36,0,0,1-5.4-2.233,7.356,7.356,0,0,1-2.233-5.4,7.363,7.363,0,0,1,2.233-5.4,7.357,7.357,0,0,1,5.4-2.235h6.987v1.441h-6.987a5.981,5.981,0,0,0-4.391,1.8,5.96,5.96,0,0,0-1.8,4.383,6,6,0,0,0,1.8,4.394,5.963,5.963,0,0,0,4.391,1.812h6.987Zm-4.052-6.915v-1.441h12.894v1.441Zm8.806,6.915v-1.441h6.987a5.982,5.982,0,0,0,4.391-1.8,5.96,5.96,0,0,0,1.8-4.383,6,6,0,0,0-1.8-4.394,5.963,5.963,0,0,0-4.391-1.812H136.3v-1.441h6.987a7.36,7.36,0,0,1,5.4,2.233,7.356,7.356,0,0,1,2.233,5.4,7.363,7.363,0,0,1-2.233,5.4,7.356,7.356,0,0,1-5.4,2.235Z" transform="translate(-105.923 668.533)"/>
    <text id="linker-2" data-name="linker" transform="translate(10 57.456)" font-size="14" font-family="Raleway-Medium, Raleway" font-weight="500"><tspan x="0" y="0">linker</tspan></text>
  </g>
</svg>
