<svg xmlns="http://www.w3.org/2000/svg" width="41" height="34.544" viewBox="0 0 41 34.544">
  <g id="logo" transform="translate(-9 -25.456)">
    <text id="shoplr" transform="translate(9 57)" font-size="14" font-family="Raleway-Medium, Raleway" font-weight="500" letter-spacing="-0.016em"><tspan x="0" y="0">shoplr</tspan></text>
    <path id="link_FILL0_wght200_GRAD0_opsz48" d="M133.266-626.009h-7.809a8.226,8.226,0,0,1-6.038-2.5,8.222,8.222,0,0,1-2.5-6.036,8.229,8.229,0,0,1,2.5-6.038,8.222,8.222,0,0,1,6.038-2.5h7.809v1.61h-7.809a6.685,6.685,0,0,0-4.908,2.012,6.661,6.661,0,0,0-2.016,4.9,6.7,6.7,0,0,0,2.016,4.911,6.665,6.665,0,0,0,4.908,2.025h7.809Zm-4.529-7.729v-1.61h14.411v1.61Zm9.842,7.729v-1.61h7.809a6.685,6.685,0,0,0,4.908-2.013,6.661,6.661,0,0,0,2.016-4.9,6.7,6.7,0,0,0-2.016-4.911,6.665,6.665,0,0,0-4.908-2.025H138.58v-1.61h7.809a8.226,8.226,0,0,1,6.038,2.5,8.222,8.222,0,0,1,2.5,6.036,8.229,8.229,0,0,1-2.5,6.038,8.222,8.222,0,0,1-6.038,2.5Z" transform="translate(-106.923 668.533)"/>
  </g>
</svg>
