<svg xmlns="http://www.w3.org/2000/svg" width="39.522" height="34.526" viewBox="0 0 39.522 34.526">
  <g id="logo" transform="translate(-9.42 -25.456)">
    <path id="Path_323" data-name="Path 323" d="M3.5.14a4.8,4.8,0,0,1-1.708-.3,3.648,3.648,0,0,1-1.372-.9L.9-1.932a4.121,4.121,0,0,0,1.26.84A3.44,3.44,0,0,0,3.444-.84a2.36,2.36,0,0,0,1.232-.287.929.929,0,0,0,.476-.847.724.724,0,0,0-.245-.6A2.041,2.041,0,0,0,4.214-2.9q-.448-.133-1.064-.3a8.406,8.406,0,0,1-1.274-.476,2,2,0,0,1-.784-.63,1.615,1.615,0,0,1-.266-.952A1.909,1.909,0,0,1,1.19-6.447a2.258,2.258,0,0,1,1-.735A3.914,3.914,0,0,1,3.64-7.434a4.082,4.082,0,0,1,1.47.252,3.11,3.11,0,0,1,1.134.742l-.56.854a2.867,2.867,0,0,0-.952-.665A2.981,2.981,0,0,0,3.57-6.468a3.048,3.048,0,0,0-.742.091,1.3,1.3,0,0,0-.6.322.865.865,0,0,0-.238.651.78.78,0,0,0,.189.553,1.456,1.456,0,0,0,.56.343q.371.14.9.308.826.238,1.435.476a2.411,2.411,0,0,1,.945.616,1.526,1.526,0,0,1,.336,1.05A1.9,1.9,0,0,1,5.572-.441,3.4,3.4,0,0,1,3.5.14ZM13.944,0H12.712V-4.088a2.9,2.9,0,0,0-.4-1.68,1.316,1.316,0,0,0-1.141-.56,2.06,2.06,0,0,0-.959.252,2.819,2.819,0,0,0-.847.679,2.7,2.7,0,0,0-.532.987V0H7.6V-10.22H8.834v4.48a3.281,3.281,0,0,1,1.183-1.239,3.059,3.059,0,0,1,1.617-.455,2.351,2.351,0,0,1,1.1.231,1.825,1.825,0,0,1,.707.651,2.969,2.969,0,0,1,.385.973,5.76,5.76,0,0,1,.119,1.211ZM18.83.14a3.624,3.624,0,0,1-1.5-.3A3.564,3.564,0,0,1,16.17-.987,3.736,3.736,0,0,1,15.414-2.2a3.954,3.954,0,0,1-.266-1.442A3.992,3.992,0,0,1,15.414-5.1a3.736,3.736,0,0,1,.756-1.211,3.544,3.544,0,0,1,1.169-.826,3.673,3.673,0,0,1,1.5-.3,3.589,3.589,0,0,1,1.484.3,3.643,3.643,0,0,1,1.169.826A3.677,3.677,0,0,1,22.26-5.1a3.992,3.992,0,0,1,.266,1.456A3.954,3.954,0,0,1,22.26-2.2,3.736,3.736,0,0,1,21.5-.987a3.544,3.544,0,0,1-1.169.826A3.673,3.673,0,0,1,18.83.14ZM16.408-3.626a2.866,2.866,0,0,0,.329,1.372,2.6,2.6,0,0,0,.875.973,2.178,2.178,0,0,0,1.218.357,2.181,2.181,0,0,0,1.225-.364,2.621,2.621,0,0,0,.882-.987,2.907,2.907,0,0,0,.329-1.379,2.866,2.866,0,0,0-.329-1.372,2.635,2.635,0,0,0-.882-.98A2.181,2.181,0,0,0,18.83-6.37,2.119,2.119,0,0,0,17.612-6a2.717,2.717,0,0,0-.875.987A2.9,2.9,0,0,0,16.408-3.626ZM27.734.14a2.9,2.9,0,0,1-1.6-.448,3.378,3.378,0,0,1-1.106-1.134V2.982H23.8V-7.308h1.092v1.372a3.366,3.366,0,0,1,1.134-1.085,2.949,2.949,0,0,1,1.526-.413,3.113,3.113,0,0,1,1.386.308,3.425,3.425,0,0,1,1.092.84,4.01,4.01,0,0,1,.721,1.211,3.953,3.953,0,0,1,.259,1.421,4.374,4.374,0,0,1-.413,1.9A3.42,3.42,0,0,1,29.442-.371,2.938,2.938,0,0,1,27.734.14ZM27.356-.924a2.094,2.094,0,0,0,.987-.231,2.415,2.415,0,0,0,.756-.616,2.806,2.806,0,0,0,.483-.875,3.087,3.087,0,0,0,.168-1.008,2.854,2.854,0,0,0-.189-1.036,2.754,2.754,0,0,0-.532-.868,2.552,2.552,0,0,0-.8-.595,2.263,2.263,0,0,0-.987-.217,2.077,2.077,0,0,0-.693.126,2.707,2.707,0,0,0-.679.357,2.544,2.544,0,0,0-.546.525,1.555,1.555,0,0,0-.294.63v2.086a3.29,3.29,0,0,0,.56.868,2.7,2.7,0,0,0,.812.623A2.1,2.1,0,0,0,27.356-.924Zm4.97-9.3h1.232v8.33q0,.6.168.742a.613.613,0,0,0,.406.14,2.423,2.423,0,0,0,.56-.063A3.545,3.545,0,0,0,35.14-1.2l.2,1.008a4.013,4.013,0,0,1-.728.21A3.838,3.838,0,0,1,33.866.1a1.538,1.538,0,0,1-1.127-.406,1.518,1.518,0,0,1-.413-1.134Zm7.616,3.99a3.035,3.035,0,0,0-1.631.469,2.463,2.463,0,0,0-1,1.253V0H36.078V-7.308h1.148v1.694a3.415,3.415,0,0,1,1-1.225,2.493,2.493,0,0,1,1.309-.525h.238a.87.87,0,0,1,.168.014Z" transform="translate(9 57)"/>
    <path id="link_FILL0_wght200_GRAD0_opsz48" d="M131.546-627.806h-6.987a7.36,7.36,0,0,1-5.4-2.233,7.356,7.356,0,0,1-2.233-5.4,7.363,7.363,0,0,1,2.233-5.4,7.357,7.357,0,0,1,5.4-2.235h6.987v1.441h-6.987a5.981,5.981,0,0,0-4.391,1.8,5.96,5.96,0,0,0-1.8,4.383,6,6,0,0,0,1.8,4.394,5.963,5.963,0,0,0,4.391,1.812h6.987Zm-4.052-6.915v-1.441h12.894v1.441Zm8.806,6.915v-1.441h6.987a5.982,5.982,0,0,0,4.391-1.8,5.96,5.96,0,0,0,1.8-4.383,6,6,0,0,0-1.8-4.394,5.963,5.963,0,0,0-4.391-1.812H136.3v-1.441h6.987a7.36,7.36,0,0,1,5.4,2.233,7.356,7.356,0,0,1,2.233,5.4,7.363,7.363,0,0,1-2.233,5.4,7.356,7.356,0,0,1-5.4,2.235Z" transform="translate(-104.923 668.533)"/>
  </g>
</svg>
